<mxfile host="app.diagrams.net" modified="2024-03-30T14:07:46.929Z" agent="Mozilla/5.0 (Windows NT 10.0; Win64; x64) AppleWebKit/537.36 (KHTML, like Gecko) Chrome/123.0.0.0 Safari/537.36 Edg/123.0.0.0" etag="khZTKWMZmrPMmz_AV3zn" version="24.2.0" type="device">
  <diagram name="Page-1" id="0mp4nq4kTQJzTWWfIsZX">
    <mxGraphModel dx="473" dy="561" grid="1" gridSize="10" guides="1" tooltips="1" connect="1" arrows="1" fold="1" page="1" pageScale="1" pageWidth="827" pageHeight="1169" math="0" shadow="0">
      <root>
        <mxCell id="0" />
        <mxCell id="1" parent="0" />
        <mxCell id="-j0lAXgiX3zhuhO3y5hM-1" value="BankAccount " style="swimlane;fontStyle=1;align=center;verticalAlign=top;childLayout=stackLayout;horizontal=1;startSize=26;horizontalStack=0;resizeParent=1;resizeParentMax=0;resizeLast=0;collapsible=1;marginBottom=0;whiteSpace=wrap;html=1;" parent="1" vertex="1">
          <mxGeometry x="90" y="230" width="220" height="160" as="geometry" />
        </mxCell>
        <mxCell id="-j0lAXgiX3zhuhO3y5hM-2" value="#&amp;nbsp; accountNumber: Integer&lt;div&gt;#&amp;nbsp; balance: double&lt;/div&gt;" style="text;strokeColor=none;fillColor=none;align=left;verticalAlign=top;spacingLeft=4;spacingRight=4;overflow=hidden;rotatable=0;points=[[0,0.5],[1,0.5]];portConstraint=eastwest;whiteSpace=wrap;html=1;" parent="-j0lAXgiX3zhuhO3y5hM-1" vertex="1">
          <mxGeometry y="26" width="220" height="44" as="geometry" />
        </mxCell>
        <mxCell id="-j0lAXgiX3zhuhO3y5hM-3" value="" style="line;strokeWidth=1;fillColor=none;align=left;verticalAlign=middle;spacingTop=-1;spacingLeft=3;spacingRight=3;rotatable=0;labelPosition=right;points=[];portConstraint=eastwest;strokeColor=inherit;" parent="-j0lAXgiX3zhuhO3y5hM-1" vertex="1">
          <mxGeometry y="70" width="220" height="8" as="geometry" />
        </mxCell>
        <mxCell id="-j0lAXgiX3zhuhO3y5hM-4" value="+&amp;nbsp;deposit (double montant) : void&amp;nbsp;&lt;div&gt;+ withdraw (double montant) : void&amp;nbsp;&lt;/div&gt;&lt;div&gt;+ getBalance () : double&lt;br&gt;&lt;div&gt;&amp;nbsp;&lt;/div&gt;&lt;/div&gt;" style="text;strokeColor=none;fillColor=none;align=left;verticalAlign=top;spacingLeft=4;spacingRight=4;overflow=hidden;rotatable=0;points=[[0,0.5],[1,0.5]];portConstraint=eastwest;whiteSpace=wrap;html=1;" parent="-j0lAXgiX3zhuhO3y5hM-1" vertex="1">
          <mxGeometry y="78" width="220" height="82" as="geometry" />
        </mxCell>
        <mxCell id="BjODku6lXebhqGfBrl92-1" style="edgeStyle=none;curved=1;rounded=0;orthogonalLoop=1;jettySize=auto;html=1;fontSize=12;startSize=8;endSize=8;" parent="1" source="-j0lAXgiX3zhuhO3y5hM-5" target="-j0lAXgiX3zhuhO3y5hM-4" edge="1">
          <mxGeometry relative="1" as="geometry" />
        </mxCell>
        <mxCell id="-j0lAXgiX3zhuhO3y5hM-5" value="SavingsAccount" style="swimlane;fontStyle=1;align=center;verticalAlign=top;childLayout=stackLayout;horizontal=1;startSize=26;horizontalStack=0;resizeParent=1;resizeParentMax=0;resizeLast=0;collapsible=1;marginBottom=0;whiteSpace=wrap;html=1;" parent="1" vertex="1">
          <mxGeometry x="60" y="540" width="160" height="140" as="geometry" />
        </mxCell>
        <mxCell id="-j0lAXgiX3zhuhO3y5hM-6" value="- interestRate : double" style="text;strokeColor=none;fillColor=none;align=left;verticalAlign=top;spacingLeft=4;spacingRight=4;overflow=hidden;rotatable=0;points=[[0,0.5],[1,0.5]];portConstraint=eastwest;whiteSpace=wrap;html=1;" parent="-j0lAXgiX3zhuhO3y5hM-5" vertex="1">
          <mxGeometry y="26" width="160" height="26" as="geometry" />
        </mxCell>
        <mxCell id="-j0lAXgiX3zhuhO3y5hM-7" value="" style="line;strokeWidth=1;fillColor=none;align=left;verticalAlign=middle;spacingTop=-1;spacingLeft=3;spacingRight=3;rotatable=0;labelPosition=right;points=[];portConstraint=eastwest;strokeColor=inherit;" parent="-j0lAXgiX3zhuhO3y5hM-5" vertex="1">
          <mxGeometry y="52" width="160" height="8" as="geometry" />
        </mxCell>
        <mxCell id="-j0lAXgiX3zhuhO3y5hM-8" value="+ calculateInterest() :void&lt;div&gt;+getInterestRate() : double&lt;/div&gt;&lt;div&gt;+ withdraw() :void&amp;nbsp;&lt;/div&gt;" style="text;strokeColor=none;fillColor=none;align=left;verticalAlign=top;spacingLeft=4;spacingRight=4;overflow=hidden;rotatable=0;points=[[0,0.5],[1,0.5]];portConstraint=eastwest;whiteSpace=wrap;html=1;" parent="-j0lAXgiX3zhuhO3y5hM-5" vertex="1">
          <mxGeometry y="60" width="160" height="80" as="geometry" />
        </mxCell>
        <mxCell id="-j0lAXgiX3zhuhO3y5hM-26" value="CheckingAccount" style="swimlane;fontStyle=1;align=center;verticalAlign=top;childLayout=stackLayout;horizontal=1;startSize=26;horizontalStack=0;resizeParent=1;resizeParentMax=0;resizeLast=0;collapsible=1;marginBottom=0;whiteSpace=wrap;html=1;" parent="1" vertex="1">
          <mxGeometry x="280" y="540" width="320" height="140" as="geometry" />
        </mxCell>
        <mxCell id="-j0lAXgiX3zhuhO3y5hM-27" value="-overdraftAllowed : double" style="text;strokeColor=none;fillColor=none;align=left;verticalAlign=top;spacingLeft=4;spacingRight=4;overflow=hidden;rotatable=0;points=[[0,0.5],[1,0.5]];portConstraint=eastwest;whiteSpace=wrap;html=1;" parent="-j0lAXgiX3zhuhO3y5hM-26" vertex="1">
          <mxGeometry y="26" width="320" height="26" as="geometry" />
        </mxCell>
        <mxCell id="-j0lAXgiX3zhuhO3y5hM-28" value="" style="line;strokeWidth=1;fillColor=none;align=left;verticalAlign=middle;spacingTop=-1;spacingLeft=3;spacingRight=3;rotatable=0;labelPosition=right;points=[];portConstraint=eastwest;strokeColor=inherit;" parent="-j0lAXgiX3zhuhO3y5hM-26" vertex="1">
          <mxGeometry y="52" width="320" height="8" as="geometry" />
        </mxCell>
        <mxCell id="-j0lAXgiX3zhuhO3y5hM-29" value="+setOverdraftAllowed(double overdraftAllowed) :void&amp;nbsp;&lt;div&gt;+ getOverdraftAllowed() : double&lt;/div&gt;&lt;div&gt;+ withdraw() :void&lt;/div&gt;" style="text;strokeColor=none;fillColor=none;align=left;verticalAlign=top;spacingLeft=4;spacingRight=4;overflow=hidden;rotatable=0;points=[[0,0.5],[1,0.5]];portConstraint=eastwest;whiteSpace=wrap;html=1;" parent="-j0lAXgiX3zhuhO3y5hM-26" vertex="1">
          <mxGeometry y="60" width="320" height="80" as="geometry" />
        </mxCell>
        <mxCell id="-j0lAXgiX3zhuhO3y5hM-30" style="edgeStyle=none;curved=1;rounded=0;orthogonalLoop=1;jettySize=auto;html=1;entryX=0.825;entryY=0.98;entryDx=0;entryDy=0;entryPerimeter=0;fontSize=12;startSize=8;endSize=8;" parent="1" source="-j0lAXgiX3zhuhO3y5hM-26" target="-j0lAXgiX3zhuhO3y5hM-4" edge="1">
          <mxGeometry relative="1" as="geometry" />
        </mxCell>
        <mxCell id="BjODku6lXebhqGfBrl92-2" value="Customer" style="swimlane;fontStyle=1;align=center;verticalAlign=top;childLayout=stackLayout;horizontal=1;startSize=26;horizontalStack=0;resizeParent=1;resizeParentMax=0;resizeLast=0;collapsible=1;marginBottom=0;whiteSpace=wrap;html=1;" parent="1" vertex="1">
          <mxGeometry x="414" y="190" width="290" height="190" as="geometry" />
        </mxCell>
        <mxCell id="BjODku6lXebhqGfBrl92-3" value="- firstName : String&lt;div&gt;- lastName : String&lt;/div&gt;&lt;div&gt;- accounts : ArrayList&amp;lt;BankAccount&amp;gt;&lt;/div&gt;" style="text;strokeColor=none;fillColor=none;align=left;verticalAlign=top;spacingLeft=4;spacingRight=4;overflow=hidden;rotatable=0;points=[[0,0.5],[1,0.5]];portConstraint=eastwest;whiteSpace=wrap;html=1;" parent="BjODku6lXebhqGfBrl92-2" vertex="1">
          <mxGeometry y="26" width="290" height="54" as="geometry" />
        </mxCell>
        <mxCell id="BjODku6lXebhqGfBrl92-11" value="" style="endArrow=diamondThin;endFill=0;endSize=24;html=1;rounded=0;fontSize=12;curved=1;" parent="BjODku6lXebhqGfBrl92-2" edge="1">
          <mxGeometry width="160" relative="1" as="geometry">
            <mxPoint x="-104" y="120" as="sourcePoint" />
            <mxPoint x="-4" y="120" as="targetPoint" />
          </mxGeometry>
        </mxCell>
        <mxCell id="BjODku6lXebhqGfBrl92-4" value="" style="line;strokeWidth=1;fillColor=none;align=left;verticalAlign=middle;spacingTop=-1;spacingLeft=3;spacingRight=3;rotatable=0;labelPosition=right;points=[];portConstraint=eastwest;strokeColor=inherit;" parent="BjODku6lXebhqGfBrl92-2" vertex="1">
          <mxGeometry y="80" width="290" height="8" as="geometry" />
        </mxCell>
        <mxCell id="BjODku6lXebhqGfBrl92-5" value="+&amp;nbsp; addAccount(BankAccount compte) : void&lt;div&gt;+&amp;nbsp;removeAccount(BankAccount compte) :void&lt;/div&gt;&lt;div&gt;+ getTotalAccountBalance() : double&lt;/div&gt;&lt;div&gt;+ transferFunds(BankAccount sourceAccount, BankAccount destinationAccount, double amount) :void&lt;/div&gt;" style="text;strokeColor=none;fillColor=none;align=left;verticalAlign=top;spacingLeft=4;spacingRight=4;overflow=hidden;rotatable=0;points=[[0,0.5],[1,0.5]];portConstraint=eastwest;whiteSpace=wrap;html=1;" parent="BjODku6lXebhqGfBrl92-2" vertex="1">
          <mxGeometry y="88" width="290" height="102" as="geometry" />
        </mxCell>
        <mxCell id="BjODku6lXebhqGfBrl92-6" value="Bank" style="swimlane;fontStyle=1;align=center;verticalAlign=top;childLayout=stackLayout;horizontal=1;startSize=26;horizontalStack=0;resizeParent=1;resizeParentMax=0;resizeLast=0;collapsible=1;marginBottom=0;whiteSpace=wrap;html=1;" parent="1" vertex="1">
          <mxGeometry x="790" y="180" width="260" height="190" as="geometry" />
        </mxCell>
        <mxCell id="BjODku6lXebhqGfBrl92-7" value="- clients :ArrayList" style="text;strokeColor=none;fillColor=none;align=left;verticalAlign=top;spacingLeft=4;spacingRight=4;overflow=hidden;rotatable=0;points=[[0,0.5],[1,0.5]];portConstraint=eastwest;whiteSpace=wrap;html=1;" parent="BjODku6lXebhqGfBrl92-6" vertex="1">
          <mxGeometry y="26" width="260" height="44" as="geometry" />
        </mxCell>
        <mxCell id="BjODku6lXebhqGfBrl92-8" value="" style="line;strokeWidth=1;fillColor=none;align=left;verticalAlign=middle;spacingTop=-1;spacingLeft=3;spacingRight=3;rotatable=0;labelPosition=right;points=[];portConstraint=eastwest;strokeColor=inherit;" parent="BjODku6lXebhqGfBrl92-6" vertex="1">
          <mxGeometry y="70" width="260" height="8" as="geometry" />
        </mxCell>
        <mxCell id="BjODku6lXebhqGfBrl92-9" value="+addCustomer(Customer client) :void +removeCustomer(Customer client) :void +getTotalBalance() : double" style="text;strokeColor=none;fillColor=none;align=left;verticalAlign=top;spacingLeft=4;spacingRight=4;overflow=hidden;rotatable=0;points=[[0,0.5],[1,0.5]];portConstraint=eastwest;whiteSpace=wrap;html=1;" parent="BjODku6lXebhqGfBrl92-6" vertex="1">
          <mxGeometry y="78" width="260" height="112" as="geometry" />
        </mxCell>
        <mxCell id="BjODku6lXebhqGfBrl92-12" value="" style="endArrow=diamondThin;endFill=0;endSize=24;html=1;rounded=0;fontSize=12;curved=1;entryX=-0.025;entryY=0.759;entryDx=0;entryDy=0;entryPerimeter=0;exitX=0.994;exitY=0.852;exitDx=0;exitDy=0;exitPerimeter=0;" parent="1" source="BjODku6lXebhqGfBrl92-3" edge="1">
          <mxGeometry width="160" relative="1" as="geometry">
            <mxPoint x="710" y="263" as="sourcePoint" />
            <mxPoint x="790" y="262.67600000000004" as="targetPoint" />
            <Array as="points" />
          </mxGeometry>
        </mxCell>
        <mxCell id="BjODku6lXebhqGfBrl92-14" value="*" style="text;html=1;align=center;verticalAlign=middle;resizable=0;points=[];autosize=1;strokeColor=none;fillColor=none;fontSize=16;" parent="1" vertex="1">
          <mxGeometry x="299" y="281" width="30" height="30" as="geometry" />
        </mxCell>
        <mxCell id="BjODku6lXebhqGfBrl92-16" value="*&lt;div&gt;&lt;br&gt;&lt;/div&gt;" style="text;html=1;align=center;verticalAlign=middle;resizable=0;points=[];autosize=1;strokeColor=none;fillColor=none;fontSize=16;" parent="1" vertex="1">
          <mxGeometry x="699" y="231" width="30" height="50" as="geometry" />
        </mxCell>
        <mxCell id="4kZYxLagqzsHxtPY2AXl-1" value="EX1" style="text;html=1;align=center;verticalAlign=middle;resizable=0;points=[];autosize=1;strokeColor=none;fillColor=none;" parent="1" vertex="1">
          <mxGeometry x="50" y="100" width="50" height="30" as="geometry" />
        </mxCell>
        <mxCell id="4kZYxLagqzsHxtPY2AXl-3" value="EX2" style="text;html=1;align=center;verticalAlign=middle;resizable=0;points=[];autosize=1;strokeColor=none;fillColor=none;" parent="1" vertex="1">
          <mxGeometry x="35" y="758" width="50" height="30" as="geometry" />
        </mxCell>
        <mxCell id="4kZYxLagqzsHxtPY2AXl-4" value="User" style="swimlane;fontStyle=1;align=center;verticalAlign=top;childLayout=stackLayout;horizontal=1;startSize=26;horizontalStack=0;resizeParent=1;resizeParentMax=0;resizeLast=0;collapsible=1;marginBottom=0;whiteSpace=wrap;html=1;" parent="1" vertex="1">
          <mxGeometry x="460" y="720" width="160" height="200" as="geometry" />
        </mxCell>
        <mxCell id="4kZYxLagqzsHxtPY2AXl-5" value="-firstName:String&amp;nbsp;&lt;div&gt;-lastName:String&lt;/div&gt;&lt;div&gt;-email:String&lt;/div&gt;&lt;div&gt;-cin:Long&lt;/div&gt;&lt;div&gt;&lt;br&gt;&lt;/div&gt;" style="text;strokeColor=none;fillColor=none;align=left;verticalAlign=top;spacingLeft=4;spacingRight=4;overflow=hidden;rotatable=0;points=[[0,0.5],[1,0.5]];portConstraint=eastwest;whiteSpace=wrap;html=1;" parent="4kZYxLagqzsHxtPY2AXl-4" vertex="1">
          <mxGeometry y="26" width="160" height="84" as="geometry" />
        </mxCell>
        <mxCell id="4kZYxLagqzsHxtPY2AXl-6" value="" style="line;strokeWidth=1;fillColor=none;align=left;verticalAlign=middle;spacingTop=-1;spacingLeft=3;spacingRight=3;rotatable=0;labelPosition=right;points=[];portConstraint=eastwest;strokeColor=inherit;" parent="4kZYxLagqzsHxtPY2AXl-4" vertex="1">
          <mxGeometry y="110" width="160" height="8" as="geometry" />
        </mxCell>
        <mxCell id="4kZYxLagqzsHxtPY2AXl-7" value="+displayInfo():void&lt;div&gt;+updateProfile(): void&lt;/div&gt;&lt;div&gt;+authenticate(): void&lt;/div&gt;&lt;div&gt;&lt;br&gt;&lt;/div&gt;" style="text;strokeColor=none;fillColor=none;align=left;verticalAlign=top;spacingLeft=4;spacingRight=4;overflow=hidden;rotatable=0;points=[[0,0.5],[1,0.5]];portConstraint=eastwest;whiteSpace=wrap;html=1;" parent="4kZYxLagqzsHxtPY2AXl-4" vertex="1">
          <mxGeometry y="118" width="160" height="82" as="geometry" />
        </mxCell>
        <mxCell id="4kZYxLagqzsHxtPY2AXl-32" style="edgeStyle=orthogonalEdgeStyle;rounded=0;orthogonalLoop=1;jettySize=auto;html=1;entryX=0.202;entryY=1.054;entryDx=0;entryDy=0;entryPerimeter=0;" parent="1" edge="1">
          <mxGeometry relative="1" as="geometry">
            <mxPoint x="459.99999999999994" y="920.0279999999999" as="targetPoint" />
            <mxPoint x="277.68" y="1005.6" as="sourcePoint" />
            <Array as="points">
              <mxPoint x="278" y="960" />
              <mxPoint x="461" y="960" />
            </Array>
          </mxGeometry>
        </mxCell>
        <mxCell id="4kZYxLagqzsHxtPY2AXl-8" value="Student" style="swimlane;fontStyle=1;align=center;verticalAlign=top;childLayout=stackLayout;horizontal=1;startSize=26;horizontalStack=0;resizeParent=1;resizeParentMax=0;resizeLast=0;collapsible=1;marginBottom=0;whiteSpace=wrap;html=1;" parent="1" vertex="1">
          <mxGeometry x="230" y="1008" width="160" height="160" as="geometry" />
        </mxCell>
        <mxCell id="4kZYxLagqzsHxtPY2AXl-9" value="-average: double&lt;div&gt;-class:Classe&lt;/div&gt;&lt;div&gt;-status: Status&lt;/div&gt;" style="text;strokeColor=none;fillColor=none;align=left;verticalAlign=top;spacingLeft=4;spacingRight=4;overflow=hidden;rotatable=0;points=[[0,0.5],[1,0.5]];portConstraint=eastwest;whiteSpace=wrap;html=1;" parent="4kZYxLagqzsHxtPY2AXl-8" vertex="1">
          <mxGeometry y="26" width="160" height="54" as="geometry" />
        </mxCell>
        <mxCell id="4kZYxLagqzsHxtPY2AXl-10" value="" style="line;strokeWidth=1;fillColor=none;align=left;verticalAlign=middle;spacingTop=-1;spacingLeft=3;spacingRight=3;rotatable=0;labelPosition=right;points=[];portConstraint=eastwest;strokeColor=inherit;" parent="4kZYxLagqzsHxtPY2AXl-8" vertex="1">
          <mxGeometry y="80" width="160" height="8" as="geometry" />
        </mxCell>
        <mxCell id="4kZYxLagqzsHxtPY2AXl-11" value="+displayInfo():void&lt;div&gt;+updateProfile(): void&lt;/div&gt;&lt;div&gt;+authenticate(): void&lt;/div&gt;&lt;div&gt;&lt;br&gt;&lt;/div&gt;" style="text;strokeColor=none;fillColor=none;align=left;verticalAlign=top;spacingLeft=4;spacingRight=4;overflow=hidden;rotatable=0;points=[[0,0.5],[1,0.5]];portConstraint=eastwest;whiteSpace=wrap;html=1;" parent="4kZYxLagqzsHxtPY2AXl-8" vertex="1">
          <mxGeometry y="88" width="160" height="72" as="geometry" />
        </mxCell>
        <mxCell id="4kZYxLagqzsHxtPY2AXl-12" value="Teacher" style="swimlane;fontStyle=1;align=center;verticalAlign=top;childLayout=stackLayout;horizontal=1;startSize=26;horizontalStack=0;resizeParent=1;resizeParentMax=0;resizeLast=0;collapsible=1;marginBottom=0;whiteSpace=wrap;html=1;" parent="1" vertex="1">
          <mxGeometry x="440" y="1010" width="220" height="158" as="geometry" />
        </mxCell>
        <mxCell id="4kZYxLagqzsHxtPY2AXl-13" value="-hIndex:Long&lt;div&gt;-courses: List&lt;/div&gt;" style="text;strokeColor=none;fillColor=none;align=left;verticalAlign=top;spacingLeft=4;spacingRight=4;overflow=hidden;rotatable=0;points=[[0,0.5],[1,0.5]];portConstraint=eastwest;whiteSpace=wrap;html=1;" parent="4kZYxLagqzsHxtPY2AXl-12" vertex="1">
          <mxGeometry y="26" width="220" height="44" as="geometry" />
        </mxCell>
        <mxCell id="4kZYxLagqzsHxtPY2AXl-14" value="" style="line;strokeWidth=1;fillColor=none;align=left;verticalAlign=middle;spacingTop=-1;spacingLeft=3;spacingRight=3;rotatable=0;labelPosition=right;points=[];portConstraint=eastwest;strokeColor=inherit;" parent="4kZYxLagqzsHxtPY2AXl-12" vertex="1">
          <mxGeometry y="70" width="220" height="8" as="geometry" />
        </mxCell>
        <mxCell id="4kZYxLagqzsHxtPY2AXl-15" value="+displayInfo():void&lt;div&gt;+updateProfile(): void&lt;/div&gt;&lt;div&gt;+authenticate(): void&lt;/div&gt;&lt;div&gt;+ displayCoursesContent(): void&lt;/div&gt;&lt;div&gt;&lt;br&gt;&lt;/div&gt;" style="text;strokeColor=none;fillColor=none;align=left;verticalAlign=top;spacingLeft=4;spacingRight=4;overflow=hidden;rotatable=0;points=[[0,0.5],[1,0.5]];portConstraint=eastwest;whiteSpace=wrap;html=1;" parent="4kZYxLagqzsHxtPY2AXl-12" vertex="1">
          <mxGeometry y="78" width="220" height="80" as="geometry" />
        </mxCell>
        <mxCell id="4kZYxLagqzsHxtPY2AXl-16" value="StaffMember" style="swimlane;fontStyle=1;align=center;verticalAlign=top;childLayout=stackLayout;horizontal=1;startSize=26;horizontalStack=0;resizeParent=1;resizeParentMax=0;resizeLast=0;collapsible=1;marginBottom=0;whiteSpace=wrap;html=1;" parent="1" vertex="1">
          <mxGeometry x="700" y="1010" width="160" height="158" as="geometry" />
        </mxCell>
        <mxCell id="4kZYxLagqzsHxtPY2AXl-17" value="-qualification:String&lt;div&gt;-experience: int&lt;/div&gt;&lt;div&gt;-tasks :List&lt;/div&gt;" style="text;strokeColor=none;fillColor=none;align=left;verticalAlign=top;spacingLeft=4;spacingRight=4;overflow=hidden;rotatable=0;points=[[0,0.5],[1,0.5]];portConstraint=eastwest;whiteSpace=wrap;html=1;" parent="4kZYxLagqzsHxtPY2AXl-16" vertex="1">
          <mxGeometry y="26" width="160" height="54" as="geometry" />
        </mxCell>
        <mxCell id="4kZYxLagqzsHxtPY2AXl-18" value="" style="line;strokeWidth=1;fillColor=none;align=left;verticalAlign=middle;spacingTop=-1;spacingLeft=3;spacingRight=3;rotatable=0;labelPosition=right;points=[];portConstraint=eastwest;strokeColor=inherit;" parent="4kZYxLagqzsHxtPY2AXl-16" vertex="1">
          <mxGeometry y="80" width="160" height="8" as="geometry" />
        </mxCell>
        <mxCell id="4kZYxLagqzsHxtPY2AXl-19" value="+displayInfo():void&lt;div&gt;+updateProfile(): void&lt;/div&gt;&lt;div&gt;+authenticate(): void&lt;/div&gt;&lt;div&gt;+ finishTask():void&lt;/div&gt;&lt;div&gt;&lt;br&gt;&lt;/div&gt;" style="text;strokeColor=none;fillColor=none;align=left;verticalAlign=top;spacingLeft=4;spacingRight=4;overflow=hidden;rotatable=0;points=[[0,0.5],[1,0.5]];portConstraint=eastwest;whiteSpace=wrap;html=1;" parent="4kZYxLagqzsHxtPY2AXl-16" vertex="1">
          <mxGeometry y="88" width="160" height="70" as="geometry" />
        </mxCell>
        <mxCell id="4kZYxLagqzsHxtPY2AXl-21" value="Course" style="swimlane;fontStyle=1;align=center;verticalAlign=top;childLayout=stackLayout;horizontal=1;startSize=26;horizontalStack=0;resizeParent=1;resizeParentMax=0;resizeLast=0;collapsible=1;marginBottom=0;whiteSpace=wrap;html=1;" parent="1" vertex="1">
          <mxGeometry x="500" y="1270" width="160" height="104" as="geometry" />
        </mxCell>
        <mxCell id="4kZYxLagqzsHxtPY2AXl-22" value="-name:String&amp;nbsp;&lt;div&gt;-contents:List&lt;/div&gt;&lt;div&gt;-coef: float&lt;/div&gt;" style="text;strokeColor=none;fillColor=none;align=left;verticalAlign=top;spacingLeft=4;spacingRight=4;overflow=hidden;rotatable=0;points=[[0,0.5],[1,0.5]];portConstraint=eastwest;whiteSpace=wrap;html=1;" parent="4kZYxLagqzsHxtPY2AXl-21" vertex="1">
          <mxGeometry y="26" width="160" height="44" as="geometry" />
        </mxCell>
        <mxCell id="4kZYxLagqzsHxtPY2AXl-23" value="" style="line;strokeWidth=1;fillColor=none;align=left;verticalAlign=middle;spacingTop=-1;spacingLeft=3;spacingRight=3;rotatable=0;labelPosition=right;points=[];portConstraint=eastwest;strokeColor=inherit;" parent="4kZYxLagqzsHxtPY2AXl-21" vertex="1">
          <mxGeometry y="70" width="160" height="8" as="geometry" />
        </mxCell>
        <mxCell id="4kZYxLagqzsHxtPY2AXl-24" value="+ method(type): type" style="text;strokeColor=none;fillColor=none;align=left;verticalAlign=top;spacingLeft=4;spacingRight=4;overflow=hidden;rotatable=0;points=[[0,0.5],[1,0.5]];portConstraint=eastwest;whiteSpace=wrap;html=1;" parent="4kZYxLagqzsHxtPY2AXl-21" vertex="1">
          <mxGeometry y="78" width="160" height="26" as="geometry" />
        </mxCell>
        <mxCell id="4kZYxLagqzsHxtPY2AXl-33" style="edgeStyle=orthogonalEdgeStyle;rounded=0;orthogonalLoop=1;jettySize=auto;html=1;" parent="1" source="4kZYxLagqzsHxtPY2AXl-12" edge="1">
          <mxGeometry relative="1" as="geometry">
            <mxPoint x="540" y="920" as="targetPoint" />
          </mxGeometry>
        </mxCell>
        <mxCell id="4kZYxLagqzsHxtPY2AXl-37" style="edgeStyle=orthogonalEdgeStyle;rounded=0;orthogonalLoop=1;jettySize=auto;html=1;entryX=0.808;entryY=1.005;entryDx=0;entryDy=0;entryPerimeter=0;" parent="1" source="4kZYxLagqzsHxtPY2AXl-16" target="4kZYxLagqzsHxtPY2AXl-7" edge="1">
          <mxGeometry relative="1" as="geometry" />
        </mxCell>
        <mxCell id="4kZYxLagqzsHxtPY2AXl-38" value="" style="endArrow=diamondThin;endFill=0;endSize=24;html=1;rounded=0;exitX=0.25;exitY=0;exitDx=0;exitDy=0;" parent="1" source="4kZYxLagqzsHxtPY2AXl-21" edge="1">
          <mxGeometry width="160" relative="1" as="geometry">
            <mxPoint x="540" y="1260" as="sourcePoint" />
            <mxPoint x="540" y="1170" as="targetPoint" />
          </mxGeometry>
        </mxCell>
        <mxCell id="4kZYxLagqzsHxtPY2AXl-39" value="*&lt;div&gt;&lt;br&gt;&lt;/div&gt;" style="text;html=1;align=center;verticalAlign=middle;resizable=0;points=[];autosize=1;strokeColor=none;fillColor=none;" parent="1" vertex="1">
          <mxGeometry x="535" y="1243" width="30" height="40" as="geometry" />
        </mxCell>
      </root>
    </mxGraphModel>
  </diagram>
</mxfile>
